<?xml version="1.0" encoding="UTF-8" standalone="no"?>
<!-- Created with Inkscape (http://www.inkscape.org/) -->

<svg
   xmlns:dc="http://purl.org/dc/elements/1.1/"
   xmlns:cc="http://creativecommons.org/ns#"
   xmlns:rdf="http://www.w3.org/1999/02/22-rdf-syntax-ns#"
   xmlns:svg="http://www.w3.org/2000/svg"
   xmlns="http://www.w3.org/2000/svg"
   xmlns:sodipodi="http://sodipodi.sourceforge.net/DTD/sodipodi-0.dtd"
   xmlns:inkscape="http://www.inkscape.org/namespaces/inkscape"
   width="200"
   height="200"
   id="svg2"
   version="1.1"
   inkscape:version="0.48.4 r9939"
   sodipodi:docname="123completed-logo.svg">
  <defs
     id="defs4" />
  <sodipodi:namedview
     id="base"
     pagecolor="#ffffff"
     bordercolor="#666666"
     borderopacity="1.0"
     inkscape:pageopacity="0.0"
     inkscape:pageshadow="2"
     inkscape:zoom="2.8"
     inkscape:cx="125.82298"
     inkscape:cy="37.641188"
     inkscape:document-units="px"
     inkscape:current-layer="layer1"
     showgrid="false"
     showguides="true"
     inkscape:guide-bbox="true"
     inkscape:window-width="1366"
     inkscape:window-height="744"
     inkscape:window-x="0"
     inkscape:window-y="24"
     inkscape:window-maximized="1" />
  <metadata
     id="metadata7">
    <rdf:RDF>
      <cc:Work
         rdf:about="">
        <dc:format>image/svg+xml</dc:format>
        <dc:type
           rdf:resource="http://purl.org/dc/dcmitype/StillImage" />
        <dc:title></dc:title>
      </cc:Work>
    </rdf:RDF>
  </metadata>
  <g
     inkscape:label="Layer 1"
     inkscape:groupmode="layer"
     id="layer1"
     transform="translate(0,-852.36218)">
    <rect
       style="fill:#4488d5;fill-opacity:1"
       id="rect2985"
       width="200"
       height="200"
       x="-1.0714285"
       y="850.04077" />
    <g
       transform="matrix(1.0000046,0,0,1,8.5115044,863.68548)"
       style="font-size:40px;font-style:normal;font-variant:normal;font-weight:normal;font-stretch:normal;line-height:125%;letter-spacing:1.99999535px;word-spacing:0px;fill:#ffffff;fill-opacity:1;stroke:#ffffff;stroke-width:0.99999768;stroke-miterlimit:4;stroke-opacity:1;font-family:Lane -Narrow;-inkscape-font-specification:Lane -Narrow"
       id="flowRoot3755">
      <path
         d="m 17.221645,51.314323 0,-3.732413 c 8.67704,-0.63796 13.749289,-4.258717 15.216762,-10.86228 l 3.30175,0 0,69.57601 -4.115225,0 0,-60.149274 c -1.75458,1.531305 -3.939795,2.775442 -6.555649,3.732413 -2.583998,0.957085 -5.199875,1.435599 -7.847638,1.435544"
         style="letter-spacing:-4.99998856px;stroke:#ffffff"
         id="path4047" />
      <path
         d="m 60.647324,106.29564 c 0.1914,-2.07356 0.781567,-4.13117 1.770504,-6.17284 0.988921,-2.041651 2.121404,-3.844054 3.397453,-5.407211 1.307927,-1.595036 2.950825,-3.285785 4.928699,-5.072254 1.977842,-1.786436 3.748344,-3.269829 5.311511,-4.450185 1.595025,-1.212215 3.493131,-2.647757 5.694323,-4.306631 2.233038,-1.658823 3.923788,-2.950811 5.072254,-3.875967 1.818321,-1.467414 3.253863,-2.663699 4.30663,-3.588859 1.084595,-0.925094 2.328732,-2.13733 3.732414,-3.63671 1.435501,-1.499308 2.520133,-2.886998 3.253898,-4.163076 0.765579,-1.275997 1.419548,-2.775341 1.96191,-4.498037 0.57417,-1.754506 0.86128,-3.556909 0.86133,-5.407214 -5e-5,-5.104099 -1.658899,-9.043864 -4.976555,-11.819308 -3.317739,-2.775319 -7.672217,-4.16301 -13.063446,-4.163076 -3.987646,6.6e-5 -7.464848,1.020896 -10.431616,3.062493 -2.934905,2.041723 -5.072267,4.450244 -6.412095,7.225569 l -3.253898,-1.96191 c 1.65884,-3.413342 4.306617,-6.252525 7.94334,-8.517558 3.636691,-2.2649 7.783812,-3.397383 12.441378,-3.397453 6.922474,7e-5 12.313732,1.770572 16.17379,5.311511 3.859972,3.541069 5.789972,8.294308 5.790022,14.259732 -5e-5,3.285847 -0.60617,6.300486 -1.81835,9.043924 -1.18039,2.711621 -2.85518,5.215845 -5.024404,7.512678 -2.137407,2.265001 -5.056342,4.753274 -8.756816,7.464827 -0.733756,0.542342 -1.993843,1.451519 -3.780264,2.727532 -1.754583,1.276061 -3.126323,2.280941 -4.115225,3.014642 -0.988956,0.733742 -2.280944,1.722671 -3.875967,2.96679 -1.595071,1.244154 -2.903009,2.360687 -3.923819,3.349601 -1.02085,0.957043 -2.105482,2.057625 -3.253899,3.30175 -1.14845,1.212247 -2.121428,2.440433 -2.918939,3.684562 -0.797536,1.212243 -1.435555,2.440428 -1.914058,3.684558 l 38.472571,0 0,3.82812 -43.592676,0"
         style="font-size:97.99977112px;font-weight:bold;letter-spacing:0px;stroke:#ffffff;font-family:District Pro;-inkscape-font-specification:District Pro Bold"
         id="path4049" />
      <path
         d="m 117.49484,93.662857 3.63671,-2.057613 c 1.30793,4.147137 3.5091,7.241527 6.6035,9.283186 3.09438,2.04166 6.69918,3.06249 10.81443,3.06249 2.52015,0 4.83297,-0.30306 6.93846,-0.90918 2.13733,-0.60611 4.05139,-1.53124 5.74218,-2.77538 1.72261,-1.244134 3.06245,-2.918933 4.01952,-5.024405 0.95698,-2.137352 1.4355,-4.625625 1.43554,-7.464827 -4e-5,-2.392551 -0.35095,-4.513964 -1.05273,-6.364243 -0.70187,-1.850229 -1.62699,-3.333623 -2.77538,-4.450185 -1.14848,-1.148404 -2.55212,-2.089482 -4.21093,-2.823235 -1.65889,-0.73369 -3.36559,-1.244105 -5.12011,-1.531247 -1.72268,-0.287074 -3.60484,-0.430629 -5.64647,-0.430663 l -7.03416,0 0,-3.588858 6.45994,0 c 1.81833,3.7e-5 3.50908,-0.111616 5.07226,-0.334961 1.56311,-0.255169 3.12626,-0.701782 4.68944,-1.33984 1.59501,-0.669881 2.93485,-1.515255 4.01952,-2.536127 1.11649,-1.052689 2.00972,-2.424429 2.67968,-4.115225 0.70178,-1.722604 1.05269,-3.716413 1.05273,-5.981431 -4e-5,-4.274674 -1.43558,-7.767826 -4.30663,-10.479468 -2.83922,-2.711517 -6.89064,-4.067307 -12.15426,-4.067373 -3.47723,6.6e-5 -6.60353,1.004946 -9.37889,3.014641 -2.7435,1.977922 -4.7054,4.434294 -5.88573,7.369124 l -3.4453,-1.914059 c 1.88215,-3.891856 4.46612,-6.874593 7.75193,-8.948221 3.28578,-2.073494 7.1777,-3.110274 11.67576,-3.110344 6.38016,7e-5 11.2929,1.658919 14.73824,4.976551 3.47716,3.317762 5.21576,7.560587 5.21581,12.728486 -5e-5,4.147174 -0.97302,7.656277 -2.91894,10.527319 -1.9141,2.871126 -4.91279,4.817083 -8.99607,5.837877 4.30659,0.861361 7.67214,2.791368 10.09666,5.790025 2.45632,2.966818 3.68451,6.763029 3.68456,11.388646 -5e-5,6.156899 -1.97791,11.069643 -5.93358,14.738243 -3.95576,3.63671 -9.49057,5.45507 -16.60445,5.45507 -4.91278,0 -9.2194,-1.19629 -12.9199,-3.58886 -3.70052,-2.42447 -6.3483,-5.86977 -7.94334,-10.335913"
         style="font-size:97.99977112px;font-weight:bold;letter-spacing:0px;stroke:#ffffff;font-family:District Pro;-inkscape-font-specification:District Pro Bold"
         id="path4051" />
    </g>
    <g
       style="font-size:39.51307297000000318px;font-style:normal;font-variant:normal;font-weight:normal;font-stretch:normal;line-height:125%;letter-spacing:0px;word-spacing:0px;fill:#ffffff;fill-opacity:1;stroke:#ffffff;stroke-opacity:1;font-family:Lane -Narrow;-inkscape-font-specification:Lane -Narrow"
       id="text3763">
      <path
         d="m 39.673342,1005.5785 -0.906825,-0.5373 c -0.335876,1.3434 -1.018793,2.3958 -2.048753,3.157 -1.007595,0.7389 -2.194303,1.1084 -3.560127,1.1084 -2.216691,0 -3.90719,-0.8397 -5.071503,-2.519 -1.007586,-1.433 -1.511377,-3.325 -1.511375,-5.676 -2e-6,-2.32865 0.503789,-4.22066 1.511375,-5.67607 1.141923,-1.67929 2.832422,-2.51895 5.071503,-2.51896 1.455387,10e-6 2.686876,0.40305 3.694472,1.2091 0.783662,0.64934 1.321039,1.39943 1.612133,2.25027 l 0.906825,-0.60455 c -0.985207,-2.53014 -3.056348,-3.79522 -6.21343,-3.79523 -2.552551,10e-6 -4.500544,0.91803 -5.843983,2.75406 -1.209102,1.61214 -1.813652,3.73926 -1.81365,6.38138 -2e-6,2.5749 0.593352,4.6908 1.780063,6.3478 1.34344,1.836 3.269042,2.754 5.776811,2.754 1.903202,0 3.481748,-0.5262 4.735642,-1.5785 0.873224,-0.7837 1.500164,-1.8025 1.880822,-3.0564"
         style="font-size:33.58610915999999946px;stroke:#ffffff;fill:#ffffff;fill-opacity:1"
         id="path4054" />
      <path
         d="m 42.949037,1001.1116 c -10e-7,2.6421 0.604548,4.7804 1.81365,6.4149 1.34344,1.7913 3.291432,2.6869 5.843983,2.6869 2.530142,0 4.48933,-0.8956 5.877569,-2.6869 1.209084,-1.6345 1.813633,-3.7728 1.81365,-6.4149 -1.7e-5,-2.64212 -0.604566,-4.76924 -1.81365,-6.38138 -1.365848,-1.83603 -3.325036,-2.75405 -5.877569,-2.75406 -2.552551,10e-6 -4.500543,0.91803 -5.843983,2.75406 -1.209102,1.61214 -1.813651,3.73926 -1.81365,6.38138 m 1.074756,0 c -3e-6,-2.32865 0.503789,-4.22066 1.511375,-5.67607 1.141922,-1.67929 2.832421,-2.51895 5.071502,-2.51896 2.216672,10e-6 3.918367,0.83967 5.105089,2.51896 1.007568,1.45541 1.511359,3.34742 1.511375,5.67607 -1.6e-5,2.351 -0.503807,4.243 -1.511375,5.676 -1.186722,1.6793 -2.888417,2.519 -5.105089,2.519 -2.21669,0 -3.907189,-0.8397 -5.071502,-2.519 -1.007586,-1.433 -1.511378,-3.325 -1.511375,-5.676"
         style="font-size:33.58610915999999946px;stroke:#ffffff;fill:#ffffff;fill-opacity:1"
         id="path4056" />
      <path
         d="m 62.090496,1009.7768 1.074755,0 0,-9.4041 c -3e-6,-0.64934 0.01119,-1.2203 0.03359,-1.71291 0.04478,-0.51497 0.08956,-0.9404 0.134345,-1.27627 0.492592,-2.95556 2.227872,-4.43335 5.205847,-4.43337 2.015155,2e-5 3.336208,0.75011 3.96316,2.25027 0.335849,0.78369 0.503779,2.14953 0.503792,4.09751 l 0,10.47887 1.04117,0 0,-9.4041 c -1.5e-5,-2.23908 0.324651,-3.95197 0.973997,-5.13869 0.850832,-1.52256 2.317424,-2.28384 4.39978,-2.28386 2.015145,2e-5 3.336197,0.75011 3.963161,2.25027 0.335837,0.78369 0.503767,2.14953 0.503792,4.09751 l 0,10.47887 1.074755,0 0,-11.55363 c -2.5e-5,-4.16466 -1.836064,-6.247 -5.508122,-6.24701 -2.574952,10e-6 -4.466968,1.18672 -5.676052,3.56012 -0.626954,-2.3734 -2.35104,-3.56011 -5.172261,-3.56012 -2.485379,10e-6 -4.299027,1.07477 -5.44095,3.22426 l 0,-2.85482 -1.074755,0 0,17.4312"
         style="font-size:33.58610915999999946px;stroke:#ffffff;fill:#ffffff;fill-opacity:1"
         id="path4058" />
      <path
         d="m 89.510402,1016.6619 1.074756,0 0,-10.6467 c 1.119532,2.7988 3.313822,4.1982 6.582877,4.1982 2.530141,0 4.489325,-0.8956 5.877565,-2.6869 1.20909,-1.6345 1.81364,-3.7728 1.81365,-6.4149 -1e-5,-2.66451 -0.60456,-4.80282 -1.81365,-6.41497 -1.34345,-1.81363 -3.302642,-2.72046 -5.877565,-2.72047 -3.246664,10e-6 -5.440954,1.45541 -6.582877,4.36619 l 0,-3.99675 -1.074756,0 0,24.3163 m 1.074756,-15.5503 c -4e-6,-2.32865 0.503788,-4.22066 1.511375,-5.67607 1.141921,-1.67929 2.83242,-2.51895 5.071502,-2.51896 2.216671,10e-6 3.918365,0.83967 5.105085,2.51896 1.00757,1.45541 1.51136,3.34742 1.51138,5.67607 -2e-5,2.351 -0.50381,4.243 -1.51138,5.676 -1.18672,1.6793 -2.888414,2.519 -5.105085,2.519 -2.216691,0 -3.90719,-0.8397 -5.071502,-2.519 -1.007587,-1.433 -1.511379,-3.325 -1.511375,-5.676"
         style="font-size:33.58610915999999946px;stroke:#ffffff;fill:#ffffff;fill-opacity:1"
         id="path4060" />
      <path
         d="m 108.83134,1009.7768 1.04117,0 0,-24.11483 -1.04117,0 0,24.11483"
         style="font-size:33.58610915999999946px;stroke:#ffffff;fill:#ffffff;fill-opacity:1"
         id="path4062" />
      <path
         d="m 125.65063,1008.7356 c 0.96279,-0.7613 1.6681,-1.7353 2.11593,-2.922 l -0.87324,-0.4702 c -1.0076,2.6421 -2.92201,3.9632 -5.74323,3.9632 -2.03756,0 -3.6273,-0.8285 -4.76922,-2.4854 -1.00759,-1.433 -1.51138,-3.2242 -1.51138,-5.3738 l 0,-0.2686 13.60237,0 0,-0.6382 c -1e-5,-2.53013 -0.58217,-4.54529 -1.74647,-6.04549 -1.27629,-1.67928 -3.13472,-2.51894 -5.5753,-2.51895 -2.48538,10e-6 -4.37739,0.94042 -5.67605,2.82123 -1.14193,1.61215 -1.71289,3.71687 -1.71289,6.31421 0,2.5973 0.57096,4.7132 1.71289,6.3478 1.29866,1.836 3.19067,2.754 5.67605,2.754 1.74647,0 3.24665,-0.4926 4.50054,-1.4778 m -10.74755,-8.5308 c 0.13434,-2.08237 0.7053,-3.78407 1.71289,-5.10514 1.14192,-1.45538 2.72047,-2.18308 4.73564,-2.18309 1.94798,10e-6 3.45936,0.7501 4.53412,2.25027 0.96279,1.32106 1.44419,3.00037 1.44421,5.03796 l -12.42686,0"
         style="font-size:33.58610915999999946px;stroke:#ffffff;fill:#ffffff;fill-opacity:1"
         id="path4064" />
      <path
         d="m 131.47572,987.57638 0,22.20042 1.07476,0 0,-16.49079 3.49295,0 0,-0.94041 -3.49295,0 0,-4.76922 -1.07476,0"
         style="font-size:33.58610915999999946px;stroke:#ffffff;fill:#ffffff;fill-opacity:1"
         id="path4066" />
      <path
         d="m 149.52826,1008.7356 c 0.96278,-0.7613 1.66809,-1.7353 2.11592,-2.922 l -0.87324,-0.4702 c -1.00759,2.6421 -2.922,3.9632 -5.74322,3.9632 -2.03757,0 -3.62731,-0.8285 -4.76923,-2.4854 -1.00759,-1.433 -1.51138,-3.2242 -1.51138,-5.3738 l 0,-0.2686 13.60238,0 0,-0.6382 c -2e-5,-2.53013 -0.58218,-4.54529 -1.74648,-6.04549 -1.27628,-1.67928 -3.13471,-2.51894 -5.57529,-2.51895 -2.48538,10e-6 -4.3774,0.94042 -5.67606,2.82123 -1.14192,1.61215 -1.71289,3.71687 -1.71289,6.31421 0,2.5973 0.57097,4.7132 1.71289,6.3478 1.29866,1.836 3.19068,2.754 5.67606,2.754 1.74646,0 3.24664,-0.4926 4.50054,-1.4778 m -10.74756,-8.5308 c 0.13434,-2.08237 0.70531,-3.78407 1.71289,-5.10514 1.14192,-1.45538 2.72047,-2.18308 4.73564,-2.18309 1.94799,10e-6 3.45936,0.7501 4.53413,2.25027 0.96279,1.32106 1.44419,3.00037 1.4442,5.03796 l -12.42686,0"
         style="font-size:33.58610915999999946px;stroke:#ffffff;fill:#ffffff;fill-opacity:1"
         id="path4068" />
      <path
         d="m 170.63502,985.66197 -1.04117,0 0,10.51245 c -1.07477,-2.79883 -3.26906,-4.19825 -6.58288,-4.19826 -2.55255,10e-6 -4.51174,0.91803 -5.87757,2.75406 -1.2091,1.61214 -1.81365,3.73926 -1.81365,6.38138 0,2.6645 0.60455,4.8028 1.81365,6.4149 1.34344,1.7913 3.30263,2.6869 5.87757,2.6869 3.24665,0 5.44094,-1.433 6.58288,-4.299 l 0,3.8624 1.04117,0 0,-24.11483 m -1.04117,15.44963 c -1e-5,2.351 -0.50381,4.243 -1.51137,5.676 -1.14194,1.6793 -2.83244,2.519 -5.07151,2.519 -2.23908,0 -3.94077,-0.8397 -5.10508,-2.519 -1.00759,-1.433 -1.51138,-3.325 -1.51138,-5.676 0,-2.35104 0.51498,-4.24305 1.54496,-5.67607 1.14192,-1.67929 2.83242,-2.51895 5.0715,-2.51896 2.23907,10e-6 3.92957,0.83967 5.07151,2.51896 1.00756,1.45541 1.51136,3.34742 1.51137,5.67607"
         style="font-size:33.58610915999999946px;stroke:#ffffff;fill:#ffffff;fill-opacity:1"
         id="path4070" />
    </g>
  </g>
</svg>
